<?xml version="1.0" encoding="UTF-8" standalone="no"?>
<svg
   viewBox="0 0 16 16"
   version="1.1"
   id="svg6"
   sodipodi:docname="ai-bookmark-2-white.svg"
   inkscape:version="1.4.3 (0d15f75, 2025-12-25)"
   xmlns:inkscape="http://www.inkscape.org/namespaces/inkscape"
   xmlns:sodipodi="http://sodipodi.sourceforge.net/DTD/sodipodi-0.dtd"
   xmlns="http://www.w3.org/2000/svg"
   xmlns:svg="http://www.w3.org/2000/svg">
  <defs
     id="defs6">
    <inkscape:path-effect
       effect="powerclip"
       message=""
       id="path-effect9"
       is_visible="true"
       lpeversion="1"
       inverse="true"
       flatten="false"
       hide_clip="false" />
    <inkscape:path-effect
       effect="powerclip"
       message=""
       id="path-effect7"
       is_visible="true"
       lpeversion="1"
       inverse="true"
       flatten="false"
       hide_clip="false" />
    <inkscape:path-effect
       effect="powerclip"
       message=""
       id="path-effect12"
       is_visible="true"
       lpeversion="1"
       inverse="true"
       flatten="false"
       hide_clip="false" />
    <clipPath
       clipPathUnits="userSpaceOnUse"
       id="clipPath8">
      <path
         id="path9"
         style="display:none;fill:#ffffff"
         d="M 4.7304686,2.7690806 C 3.976505,2.7691638 3.3653175,3.3803514 3.3652346,4.134315 3.3653176,4.8882786 3.976505,5.4994661 4.7304686,5.4995493 5.4844322,5.4994661 6.0956196,4.8882786 6.0957026,4.134315 6.0956197,3.3803514 5.4844322,2.7691638 4.7304686,2.7690806 Z m 6.5390624,0 c -0.753964,8.29e-5 -1.3651515,0.6112706 -1.3652344,1.3652344 8.3e-5,0.7539637 0.6112704,1.3651514 1.3652344,1.3652343 0.753964,-8.32e-5 1.365151,-0.6112707 1.365234,-1.3652343 -8.3e-5,-0.7539636 -0.61127,-1.3651512 -1.365234,-1.3652344 z M 5.0097656,6.8081431 V 8.5424463 H 10.990234 V 6.8081431 Z"
         sodipodi:nodetypes="ccccccccccccccc" />
      <path
         id="lpe_path-effect9"
         style="display:block;fill:#ffffff"
         class="powerclip"
         d="M -2.0013389,-4.7307692 H 18.001329 V 19.730172 H -2.0013389 Z M 4.7304686,2.7690806 C 3.976505,2.7691638 3.3653175,3.3803514 3.3652346,4.134315 3.3653176,4.8882786 3.976505,5.4994661 4.7304686,5.4995493 5.4844322,5.4994661 6.0956196,4.8882786 6.0957026,4.134315 6.0956197,3.3803514 5.4844322,2.7691638 4.7304686,2.7690806 Z m 6.5390624,0 c -0.753964,8.29e-5 -1.3651515,0.6112706 -1.3652344,1.3652344 8.3e-5,0.7539637 0.6112704,1.3651514 1.3652344,1.3652343 0.753964,-8.32e-5 1.365151,-0.6112707 1.365234,-1.3652343 -8.3e-5,-0.7539636 -0.61127,-1.3651512 -1.365234,-1.3652344 z M 5.0097656,6.8081431 V 8.5424463 H 10.990234 V 6.8081431 Z" />
    </clipPath>
  </defs>
  <sodipodi:namedview
     id="namedview6"
     pagecolor="#505050"
     bordercolor="#ffffff"
     borderopacity="1"
     inkscape:showpageshadow="0"
     inkscape:pageopacity="0"
     inkscape:pagecheckerboard="1"
     inkscape:deskcolor="#505050"
     inkscape:zoom="36.769553"
     inkscape:cx="7.9957459"
     inkscape:cy="7.9957459"
     inkscape:window-width="1512"
     inkscape:window-height="921"
     inkscape:window-x="0"
     inkscape:window-y="61"
     inkscape:window-maximized="0"
     inkscape:current-layer="svg6" />
  <!-- AI Bookmark 2: bookmark with bot head + cutout eyes and mouth -->
  <!-- We use a mask so eyes & mouth become transparent holes (no fill) -->
  <mask
     id="ai2mask"
     maskUnits="userSpaceOnUse"
     x="0"
     y="0"
     width="16"
     height="16">
    <!-- Base shapes painted white (visible) -->
    <path
       d="M7.25 0h1.5v1H12c.55 0 1 .45 1 1v12.5L8 12.5 3 14.5V2c0-.55.45-1 1-1h3.25V0z"
       fill="#ffffff"
       id="path1" />
    <path
       d="m 5.2,2.2 h 5.6 V 4.4 C 9.1987828,3.5312564 7.3649229,3.4238888 5.2,4.4 Z"
       fill="#ffffff"
       id="path2"
       sodipodi:nodetypes="ccccc" />
    <path
       d="M7.6 .2h.8v.8h-.8z"
       fill="#ffffff"
       id="path3" />
    <!-- Cutouts (black => removed) -->
    <circle
       cx="6.7"
       cy="3.3"
       r="0.55"
       fill="#000000"
       id="circle3" />
    <circle
       fill="#000000"
       id="circle4"
       r="0.55000001"
       cy="3.1173077"
       cx="9.5596151" />
    <rect
       x="7"
       y="3.9"
       width="2"
       height="0.9"
       fill="#000000"
       id="rect4" />
  </mask>
  <g
     mask="url(#ai2mask)"
     id="g6" />
  <path
     style="fill:#ffffff;stroke-width:0.0384615"
     d="M 3.0089479,8.3939327 3.0192308,2.0576923 3.1274447,1.8373235 C 3.1869624,1.7161206 3.2984931,1.5651612 3.3752907,1.5018581 3.6478555,1.2771871 3.71484,1.2692308 5.3337746,1.2692308 h 1.4739177 v -0.50000003 -0.5 H 8 9.1923077 v 0.5 0.50000003 h 1.4739173 c 1.618935,0 1.68592,0.00796 1.958484,0.2326273 0.0768,0.063303 0.188329,0.2142625 0.247846,0.3354654 l 0.108214,0.2203688 0.01028,6.333115 0.01028,6.3331157 -2.496423,-0.99884 -2.4964231,-0.99884 -2.3215512,0.929564 c -1.2768531,0.51126 -2.404063,0.962144 -2.5049109,1.001965 l -0.1833597,0.0724 z"
     id="path8"
     clip-path="url(#clipPath8)"
     inkscape:path-effect="#path-effect9"
     inkscape:original-d="M 3.0089479,8.3939327 3.0192308,2.0576923 3.1274447,1.8373235 C 3.1869624,1.7161206 3.2984931,1.5651612 3.3752907,1.5018581 3.6478555,1.2771871 3.71484,1.2692308 5.3337746,1.2692308 h 1.4739177 v -0.50000003 -0.5 H 8 9.1923077 v 0.5 0.50000003 h 1.4739173 c 1.618935,0 1.68592,0.00796 1.958484,0.2326273 0.0768,0.063303 0.188329,0.2142625 0.247846,0.3354654 l 0.108214,0.2203688 0.01028,6.333115 0.01028,6.3331157 -2.496423,-0.99884 -2.4964231,-0.99884 -2.3215512,0.929564 c -1.2768531,0.51126 -2.404063,0.962144 -2.5049109,1.001965 l -0.1833597,0.0724 z"
     transform="translate(0,0.33076923)" />
</svg>
