<?xml version="1.0" encoding="UTF-8"?>
<!-- Created with Inkscape (http://www.inkscape.org/) -->
<svg width="300mm" height="300mm" version="1.1" viewBox="0 0 300 300" xml:space="preserve" xmlns="http://www.w3.org/2000/svg"><defs><clipPath id="clipPath13"><path d="m3466 141.04a83.235 84.507 4.3007 0 1-89.338 78.027 83.235 84.507 4.3007 0 1-76.664-90.511 83.235 84.507 4.3007 0 1 89.338-78.027 83.235 84.507 4.3007 0 1 76.663 90.511z" display="none" fill="#fff" stroke-width=".27833"/><path class="powerclip" d="m3244-13.541h282.64v273.71h-282.64zm222 154.58a83.235 84.507 4.3007 0 0-76.663-90.511 83.235 84.507 4.3007 0 0-89.338 78.027 83.235 84.507 4.3007 0 0 76.664 90.511 83.235 84.507 4.3007 0 0 89.338-78.027z" fill="#fff" stroke-width=".27833"/></clipPath></defs><g transform="translate(-3100)"><path transform="matrix(.95514 -.070748 .071829 .94077 6.4964 274.21)" d="m3521.7 97.646-60.468 157.53-168.5-8.8308-43.671-162.98 141.51-91.898z" clip-path="url(#clipPath13)" fill="#fff" stroke-width=".26458"/></g></svg>
